# https://github.com/mikedh/trimesh
mtllib window-xdxisn-0.mtl
usemtl material_0
v 0.00000018 1.17459396 -1.50914100
v 0.00000118 1.11988906 1.55016990
v -0.00000052 -1.17459404 1.50914100
v -0.00000052 -1.11988894 -1.55017000
vn 1.00000000 -0.00000048 -0.00000014
vn 1.00000000 -0.00000073 -0.00000034
vn 1.00000000 -0.00000056 -0.00000020
vn 1.00000000 -0.00000030 -0.00000001
vt 1.00000000 0.00000000
vt 1.00000000 1.00000000
vt 0.00000000 1.00000000
vt 0.00000000 0.00000000
f 1/1/1 2/2/2 3/3/3
f 3/3/3 4/4/4 1/1/1